<svg width="31" height="46" viewBox="0 0 31 46" fill="none" xmlns="http://www.w3.org/2000/svg">
<path d="M9.34833 45.6833C13.2158 40.6258 15.5 38.8292 15.5 36C15.5 32.1325 12.7667 31.5521 10.2379 29.7671C7.70917 27.9821 3.54417 26.4946 4.88292 23.9658L3.23125 25.4962C3.23125 25.4962 0.877499 28.0279 0.999999 31C1.14875 34.57 4.39083 34.3942 7.5 36.5C12.5575 39.9212 10.6871 44.1958 9.34833 45.6833C8.60458 45.0883 10.5354 46.5729 9.34833 45.6833ZM19.965 37.1375L28.1667 28.1775C28.1667 28.1775 30.4446 25.7479 30.4446 21.1892C30.4446 16.6304 26.7988 13.8975 24.8242 12.5296C22.8496 11.1617 15.5579 6.14792 15.5579 6.14792C15.5579 6.14792 12.9767 4.78 12.9767 2.80542C12.9767 1.28583 13.5833 0.830833 13.5833 0.830833L6.74667 7.97375C6.74667 7.97375 4.46875 10.4033 4.46875 14.0492C4.46875 17.695 6.14 20.5825 7.96292 21.9475C9.78583 23.3125 17.9904 28.9358 17.9904 28.9358C17.9904 28.9358 21.0296 30.9104 21.0296 33.34C21.0296 35.7696 20.4229 36.3792 19.965 37.1375Z" fill="url(#paint0_linear_1_3)"/>
<path d="M9.34833 45.6833C9.49724 45.4886 9.6438 45.2987 9.78797 45.1134C9.64144 45.3324 9.49183 45.5239 9.34833 45.6833Z" fill="url(#paint1_linear_1_3)"/>
<defs>
<linearGradient id="paint0_linear_1_3" x1="13" y1="0.0725021" x2="13" y2="58.1667" gradientUnits="userSpaceOnUse">
<stop stop-color="#745A96"/>
<stop offset="1" stop-color="#3265E9" stop-opacity="0.5"/>
</linearGradient>
<linearGradient id="paint1_linear_1_3" x1="13" y1="0.0725021" x2="13" y2="58.1667" gradientUnits="userSpaceOnUse">
<stop stop-color="#745A96"/>
<stop offset="1" stop-color="#3265E9" stop-opacity="0.5"/>
</linearGradient>
</defs>
</svg>
